<?xml version="1.0" encoding="UTF-8" standalone="no"?>
<!DOCTYPE svg PUBLIC "-//W3C//DTD SVG 1.1//EN" "http://www.w3.org/Graphics/SVG/1.1/DTD/svg11.dtd">
<svg width="100%" height="100%" viewBox="0 0 1024 1024" version="1.1" xmlns="http://www.w3.org/2000/svg" xmlns:xlink="http://www.w3.org/1999/xlink" xml:space="preserve" xmlns:serif="http://www.serif.com/" style="fill-rule:evenodd;clip-rule:evenodd;stroke-linecap:round;stroke-linejoin:round;stroke-miterlimit:1.5;">
    <g transform="matrix(1,0,0,1,-60,-20)">
        <path d="M582,272.219C582,272.219 545.628,215.742 507.068,287.388C507.068,287.388 459.816,260.201 447.229,301.835C447.229,301.835 440.759,332.174 476.664,367.185C486.264,376.546 446.174,338.92 446.174,338.92C446.174,338.92 379.766,324.28 383.359,376.384C383.359,376.384 392.177,401.759 408.792,409.944C408.792,409.944 373.879,445.114 404.143,474.541C404.143,474.541 435.872,512.414 476.182,467.411C476.182,467.411 454.412,539 511.393,536.33L628.414,535.684C628.414,535.684 667.125,554.212 669.974,576.922C669.974,576.922 670.199,618.102 697.925,592.686C697.925,592.686 743.879,552.796 739.779,509.883C736.371,474.211 750.255,468.958 759.161,467.609C760.968,467.336 764.982,467.287 763.782,467.049C735.71,461.49 737.936,531.589 737.936,531.589C737.936,531.589 777.665,542.978 809.279,500.444C809.279,500.444 864.172,488.433 860.459,439.869C856.747,391.306 796.974,373.477 770.993,404.711C745.013,435.945 815.93,390.142 815.93,390.142C815.93,390.142 848.089,309.26 757.261,306.083C757.261,306.083 757.065,263.664 719.274,257.413C719.274,257.413 687.03,263.079 678.702,291.909C678.702,291.909 674.459,237.123 630.503,231.907C630.503,231.907 558.383,232.491 588.272,323.556C588.272,323.556 546.678,287.13 548.571,358.379" style="fill:rgb(244,80,157);stroke:black;stroke-width:31.25px;"/>
    </g>
</svg>
