<?xml version="1.0" encoding="UTF-8" standalone="no"?>
<!DOCTYPE svg PUBLIC "-//W3C//DTD SVG 1.1//EN" "http://www.w3.org/Graphics/SVG/1.1/DTD/svg11.dtd">
<svg width="100%" height="100%" viewBox="0 0 740 740" version="1.1" xmlns="http://www.w3.org/2000/svg" xmlns:xlink="http://www.w3.org/1999/xlink" xml:space="preserve" xmlns:serif="http://www.serif.com/" style="fill-rule:evenodd;clip-rule:evenodd;stroke-linecap:round;stroke-linejoin:round;stroke-miterlimit:1.5;">
    <g transform="matrix(1,0,0,1,-0.259517,0.864623)">
        <path d="M178.78,239.068C178.221,222.099 190.521,164.826 235.117,123.014C269.822,90.474 335.1,70.339 357.933,66.197C386.978,60.928 447.266,62.344 493.195,80.817C534.959,97.614 579.742,142.136 589.004,166.068C626.835,263.818 613.264,306.449 591.77,354.704C584.896,370.135 531.286,434.976 542.09,477.182C550.65,510.619 560.861,528.975 550.48,545.595C511.347,608.241 408.657,663.754 408.657,663.754C378.421,681.744 364.923,675.309 358.112,661.128C353.363,651.239 348.059,644.105 338.538,625.529C334.407,617.468 329.329,608.181 322.428,594.071C315.621,580.155 312.604,565.979 305.102,560.17C290.739,549.047 289.151,551.226 280.308,549.764C266.636,547.504 263.86,548.946 223.071,546.611C185.867,544.481 170.075,522.621 176.065,502.488C182.054,482.354 184.83,478.456 175.543,469.676C168.354,462.88 167.378,455.648 168.652,450.809C170.384,444.227 173.321,438.36 169.226,434.678C161.188,427.451 165.016,413.936 165.016,413.936C166.562,406.816 168.83,401.481 167.987,396.697C166.589,388.754 158.94,383.183 142.26,379.734C137.963,378.845 130.855,374.234 129.575,371.805C122.094,357.606 139.468,339.918 139.468,339.918C139.468,339.918 146.209,336.652 171.765,300.207C183.58,283.358 179.646,265.365 178.78,239.068Z" style="fill:rgb(66,13,242);stroke:black;stroke-width:1px;"/>
    </g>
</svg>
